<svg width="17" height="19" viewBox="0 0 17 19" fill="none" xmlns="http://www.w3.org/2000/svg">
<path d="M14.4408 2.28375C12.319 0.161928 8.86371 0.161928 6.74415 2.28375L0.865226 8.15816C0.826934 8.19646 0.806661 8.24826 0.806661 8.30232C0.806661 8.35638 0.826934 8.40819 0.865226 8.44648L1.69638 9.27764C1.73438 9.31546 1.7858 9.3367 1.83941 9.3367C1.89303 9.3367 1.94445 9.31546 1.98245 9.27764L7.86137 3.40322C8.59117 2.67342 9.56198 2.27248 10.5936 2.27248C11.6252 2.27248 12.596 2.67342 13.3236 3.40322C14.0534 4.13302 14.4543 5.10383 14.4543 6.1332C14.4543 7.16483 14.0534 8.13339 13.3236 8.86318L7.33204 14.8525L6.36123 15.8233C5.45349 16.731 3.97813 16.731 3.07038 15.8233C2.63115 15.3841 2.39014 14.8007 2.39014 14.179C2.39014 13.5573 2.63115 12.9739 3.07038 12.5347L9.01463 6.5927C9.16554 6.44404 9.36376 6.3607 9.57549 6.3607H9.57774C9.78947 6.3607 9.98544 6.44404 10.1341 6.5927C10.285 6.74362 10.3661 6.94183 10.3661 7.15357C10.3661 7.36305 10.2828 7.56126 10.1341 7.70992L5.27554 12.564C5.23725 12.6023 5.21698 12.6541 5.21698 12.7081C5.21698 12.7622 5.23725 12.814 5.27554 12.8523L6.1067 13.6835C6.14469 13.7213 6.19612 13.7425 6.24973 13.7425C6.30334 13.7425 6.35477 13.7213 6.39276 13.6835L11.2491 8.82714C11.6973 8.37891 11.9428 7.78426 11.9428 7.15131C11.9428 6.51837 11.6951 5.92147 11.2491 5.47548C10.3233 4.54972 8.81866 4.55197 7.8929 5.47548L7.31627 6.05437L1.95091 11.4175C1.58676 11.7795 1.2981 12.2102 1.10168 12.6846C0.905256 13.1591 0.804979 13.6678 0.806661 14.1812C0.806661 15.2241 1.21436 16.204 1.95091 16.9405C2.7145 17.7018 3.71459 18.0825 4.71468 18.0825C5.71477 18.0825 6.71487 17.7018 7.4762 16.9405L14.4408 9.9804C15.4657 8.95328 16.0333 7.58604 16.0333 6.1332C16.0355 4.67811 15.4679 3.31087 14.4408 2.28375Z" fill="white"/>
</svg>
