<svg width="48" height="49" viewBox="0 0 48 49" fill="none" xmlns="http://www.w3.org/2000/svg">
<g clip-path="url(#clip0_8_23)">
<path fill-rule="evenodd" clip-rule="evenodd" d="M9.0948 32.0528C6.3564 32.0528 4.4688 29.7848 4.4688 26.4332C4.4688 23.0492 6.3564 20.7824 9.0948 20.7824C11.8308 20.7824 13.7208 23.0492 13.7208 26.4008C13.7208 29.7848 11.832 32.0528 9.0948 32.0528ZM9.0948 36.2984C14.1612 36.2984 18.1884 32.084 18.1884 26.4008C18.1884 20.7824 14.3808 16.5368 9.0948 16.5368C4.0284 16.5356 0 20.7488 0 26.432C0 32.1476 3.8076 36.2972 9.0948 36.2972" fill="#6E0AD6"/>
<path fill-rule="evenodd" clip-rule="evenodd" d="M21.9337 28.7636H30.6181C31.2169 28.7636 31.5625 28.4132 31.5625 27.806V25.028C31.5625 24.422 31.2169 24.0704 30.6181 24.0704H24.7969V12.2576C24.7969 11.6516 24.4513 11.3 23.8525 11.3H20.9893C20.3917 11.3 20.0449 11.6516 20.0449 12.2576V26.8484C20.0449 28.094 20.7061 28.7636 21.9337 28.7636Z" fill="#8CE563"/>
<path fill-rule="evenodd" clip-rule="evenodd" d="M33.7343 36.0116L38.9579 29.9132L44.0243 36.0116C44.4647 36.554 45.0311 36.554 45.5339 36.1076L47.5799 34.2872C48.0839 33.8396 48.1463 33.266 47.6747 32.7548L42.0419 26.3696L47.1707 20.5268C47.6111 20.0156 47.5787 19.4732 47.0771 18.9944L45.1571 17.2388C44.6531 16.7588 44.0867 16.7912 43.6463 17.3348L38.9579 22.8572L34.1747 17.3336C33.7343 16.8236 33.1667 16.7588 32.6639 17.2376L30.6815 19.0256C30.1775 19.5056 30.1463 20.0156 30.6179 20.5592L35.8427 26.4008L30.1463 32.8184C29.6747 33.3608 29.7383 33.9044 30.2411 34.3508L32.2235 36.1076C32.7275 36.554 33.2927 36.5216 33.7343 36.0116Z" fill="#F28000"/>
</g>
<defs>
<clipPath id="clip0_8_23">
<rect width="48" height="48" fill="white" transform="translate(0 0.5)"/>
</clipPath>
</defs>
</svg>
