<svg width="17" height="17" viewBox="0 0 17 17" fill="none" xmlns="http://www.w3.org/2000/svg">
<path d="M6.74751 10.1207L15.7925 1.07574L6.74751 10.1207ZM15.7925 1.07574L10.4477 15.8766C10.4116 15.9553 10.3537 16.022 10.2808 16.0688C10.208 16.1156 10.1232 16.1404 10.0366 16.1404C9.94998 16.1404 9.8652 16.1156 9.79232 16.0688C9.71944 16.022 9.66152 15.9553 9.62545 15.8766L6.74751 10.1207L0.991625 7.24276C0.9129 7.20668 0.846188 7.14876 0.799417 7.07588C0.752646 7.003 0.727783 6.91822 0.727783 6.83162C0.727783 6.74503 0.752646 6.66025 0.799417 6.58737C0.846188 6.51449 0.9129 6.45657 0.991625 6.42049L15.7925 1.07574Z" fill="#F28000"/>
<path d="M6.74751 10.1207L15.7925 1.07574M6.74751 10.1207L9.62545 15.8766C9.66152 15.9553 9.71944 16.022 9.79232 16.0688C9.8652 16.1156 9.94998 16.1404 10.0366 16.1404C10.1232 16.1404 10.208 16.1156 10.2808 16.0688C10.3537 16.022 10.4116 15.9553 10.4477 15.8766L15.7925 1.07574M6.74751 10.1207L0.991625 7.24276C0.9129 7.20668 0.846188 7.14876 0.799417 7.07588C0.752646 7.003 0.727783 6.91822 0.727783 6.83162C0.727783 6.74503 0.752646 6.66025 0.799417 6.58737C0.846188 6.51449 0.9129 6.45657 0.991625 6.42049L15.7925 1.07574" stroke="white" stroke-width="1.1028" stroke-linecap="round" stroke-linejoin="round"/>
</svg>
